<?xml version="1.0" encoding="UTF-8" standalone="no"?>
<!DOCTYPE svg PUBLIC "-//W3C//DTD SVG 1.1//EN"
 "http://www.w3.org/Graphics/SVG/1.1/DTD/svg11.dtd">
<!-- Generated by graphviz version 2.38.0 (20140413.2041)
 -->
<!-- Title: %3 Pages: 1 -->
<svg width="239pt" height="332pt"
 viewBox="0.00 0.00 239.00 332.00" xmlns="http://www.w3.org/2000/svg" xmlns:xlink="http://www.w3.org/1999/xlink">
<g id="graph0" class="graph" transform="scale(1 1) rotate(0) translate(4 328)">
<title>%3</title>
<polygon fill="white" stroke="none" points="-4,4 -4,-328 235,-328 235,4 -4,4"/>
<!-- 1 -->
<g id="node1" class="node"><title>1</title>
<ellipse fill="none" stroke="black" cx="127" cy="-306" rx="27" ry="18"/>
<text text-anchor="middle" x="127" y="-302.3" font-family="Times,serif" font-size="14.00">1</text>
</g>
<!-- 2 -->
<g id="node2" class="node"><title>2</title>
<ellipse fill="none" stroke="black" cx="36" cy="-234" rx="27" ry="18"/>
<text text-anchor="middle" x="36" y="-230.3" font-family="Times,serif" font-size="14.00">2</text>
</g>
<!-- 1&#45;&gt;2 -->
<g id="edge1" class="edge"><title>1&#45;&gt;2</title>
<path fill="none" stroke="black" d="M109.884,-291.834C96.1563,-281.274 76.6901,-266.3 61.1847,-254.373"/>
<polygon fill="black" stroke="black" points="63.0999,-251.43 53.0397,-248.107 58.8319,-256.979 63.0999,-251.43"/>
</g>
<!-- 3 -->
<g id="node3" class="node"><title>3</title>
<ellipse fill="none" stroke="black" cx="127" cy="-234" rx="27" ry="18"/>
<text text-anchor="middle" x="127" y="-230.3" font-family="Times,serif" font-size="14.00">3</text>
</g>
<!-- 1&#45;&gt;3 -->
<g id="edge2" class="edge"><title>1&#45;&gt;3</title>
<path fill="none" stroke="black" d="M127,-287.697C127,-279.983 127,-270.712 127,-262.112"/>
<polygon fill="black" stroke="black" points="130.5,-262.104 127,-252.104 123.5,-262.104 130.5,-262.104"/>
</g>
<!-- 7 -->
<g id="node7" class="node"><title>7</title>
<ellipse fill="none" stroke="black" cx="204" cy="-162" rx="27" ry="18"/>
<text text-anchor="middle" x="204" y="-158.3" font-family="Times,serif" font-size="14.00">7</text>
</g>
<!-- 1&#45;&gt;7 -->
<g id="edge6" class="edge"><title>1&#45;&gt;7</title>
<path fill="none" stroke="black" d="M138.41,-289.664C145.865,-279.306 155.56,-265.172 163,-252 174.648,-231.378 185.753,-206.865 193.46,-188.791"/>
<polygon fill="black" stroke="black" points="196.726,-190.053 197.374,-179.478 190.273,-187.34 196.726,-190.053"/>
</g>
<!-- 8 -->
<g id="node8" class="node"><title>8</title>
<ellipse fill="none" stroke="black" cx="27" cy="-162" rx="27" ry="18"/>
<text text-anchor="middle" x="27" y="-158.3" font-family="Times,serif" font-size="14.00">8</text>
</g>
<!-- 2&#45;&gt;8 -->
<g id="edge7" class="edge"><title>2&#45;&gt;8</title>
<path fill="none" stroke="black" d="M33.8214,-216.055C32.8302,-208.346 31.632,-199.027 30.5183,-190.364"/>
<polygon fill="black" stroke="black" points="33.9678,-189.747 29.2211,-180.275 27.025,-190.64 33.9678,-189.747"/>
</g>
<!-- 4 -->
<g id="node4" class="node"><title>4</title>
<ellipse fill="none" stroke="black" cx="127" cy="-162" rx="27" ry="18"/>
<text text-anchor="middle" x="127" y="-158.3" font-family="Times,serif" font-size="14.00">4</text>
</g>
<!-- 3&#45;&gt;4 -->
<g id="edge3" class="edge"><title>3&#45;&gt;4</title>
<path fill="none" stroke="black" d="M127,-215.697C127,-207.983 127,-198.712 127,-190.112"/>
<polygon fill="black" stroke="black" points="130.5,-190.104 127,-180.104 123.5,-190.104 130.5,-190.104"/>
</g>
<!-- 5 -->
<g id="node5" class="node"><title>5</title>
<ellipse fill="none" stroke="black" cx="80" cy="-90" rx="27" ry="18"/>
<text text-anchor="middle" x="80" y="-86.3" font-family="Times,serif" font-size="14.00">5</text>
</g>
<!-- 4&#45;&gt;5 -->
<g id="edge4" class="edge"><title>4&#45;&gt;5</title>
<path fill="none" stroke="black" d="M116.335,-145.116C110.446,-136.345 103.006,-125.264 96.3938,-115.416"/>
<polygon fill="black" stroke="black" points="99.103,-113.172 90.6228,-106.821 93.2914,-117.074 99.103,-113.172"/>
</g>
<!-- 6 -->
<g id="node6" class="node"><title>6</title>
<ellipse fill="none" stroke="black" cx="152" cy="-90" rx="27" ry="18"/>
<text text-anchor="middle" x="152" y="-86.3" font-family="Times,serif" font-size="14.00">6</text>
</g>
<!-- 4&#45;&gt;6 -->
<g id="edge5" class="edge"><title>4&#45;&gt;6</title>
<path fill="none" stroke="black" d="M132.925,-144.411C135.778,-136.421 139.271,-126.642 142.484,-117.645"/>
<polygon fill="black" stroke="black" points="145.877,-118.551 145.944,-107.956 139.285,-116.196 145.877,-118.551"/>
</g>
<!-- 9 -->
<g id="node9" class="node"><title>9</title>
<ellipse fill="none" stroke="black" cx="116" cy="-18" rx="27" ry="18"/>
<text text-anchor="middle" x="116" y="-14.3" font-family="Times,serif" font-size="14.00">9</text>
</g>
<!-- 5&#45;&gt;9 -->
<g id="edge8" class="edge"><title>5&#45;&gt;9</title>
<path fill="none" stroke="black" d="M88.3496,-72.7646C92.7115,-64.2831 98.1469,-53.7144 103.041,-44.1974"/>
<polygon fill="black" stroke="black" points="106.235,-45.6409 107.696,-35.1473 100.01,-42.4395 106.235,-45.6409"/>
</g>
<!-- 6&#45;&gt;9 -->
<g id="edge9" class="edge"><title>6&#45;&gt;9</title>
<path fill="none" stroke="black" d="M143.65,-72.7646C139.288,-64.2831 133.853,-53.7144 128.959,-44.1974"/>
<polygon fill="black" stroke="black" points="131.99,-42.4395 124.304,-35.1473 125.765,-45.6409 131.99,-42.4395"/>
</g>
<!-- 7&#45;&gt;9 -->
<g id="edge10" class="edge"><title>7&#45;&gt;9</title>
<path fill="none" stroke="black" d="M204.567,-143.936C204.415,-124.975 201.778,-94.1205 188,-72 178.01,-55.9617 161.24,-43.1921 146.398,-34.2091"/>
<polygon fill="black" stroke="black" points="147.901,-31.0368 137.483,-29.1098 144.425,-37.113 147.901,-31.0368"/>
</g>
<!-- 8&#45;&gt;9 -->
<g id="edge11" class="edge"><title>8&#45;&gt;9</title>
<path fill="none" stroke="black" d="M26.6625,-143.925C27.0603,-124.954 30.0741,-94.0898 44,-72 54.0766,-56.0162 70.8507,-43.2492 85.6742,-34.254"/>
<polygon fill="black" stroke="black" points="87.6438,-37.1591 94.5745,-29.1456 84.1593,-31.0881 87.6438,-37.1591"/>
</g>
</g>
</svg>
